<svg width="56" height="56" fill="none" xmlns="http://www.w3.org/2000/svg"><g clip-path="url(#clip0_1_683)"><path d="M49 43.75l-2.474-2.474L42 45.8V31.5h-3.5v14.301l-4.526-4.526L31.5 43.75l8.75 8.75L49 43.75z" fill="#23B123"/><g filter="url(#filter0_d_1_683)"><path d="M17.5 49V17.5h21v8.75H42V10.5A3.504 3.504 0 0038.5 7h-21a3.504 3.504 0 00-3.5 3.5V49a3.504 3.504 0 003.5 3.5H28V49H17.5zm0-38.5h21V14h-21v-3.5z" fill="#23B123"/></g></g><defs><clipPath id="clip0_1_683"><path fill="#fff" d="M0 0h56v56H0z"/></clipPath><filter id="filter0_d_1_683" x="10" y="7" width="36" height="53.5" filterUnits="userSpaceOnUse" color-interpolation-filters="sRGB"><feFlood flood-opacity="0" result="BackgroundImageFix"/><feColorMatrix in="SourceAlpha" values="0 0 0 0 0 0 0 0 0 0 0 0 0 0 0 0 0 0 127 0" result="hardAlpha"/><feOffset dy="4"/><feGaussianBlur stdDeviation="2"/><feComposite in2="hardAlpha" operator="out"/><feColorMatrix values="0 0 0 0 0 0 0 0 0 0 0 0 0 0 0 0 0 0 0.25 0"/><feBlend in2="BackgroundImageFix" result="effect1_dropShadow_1_683"/><feBlend in="SourceGraphic" in2="effect1_dropShadow_1_683" result="shape"/></filter></defs></svg>