<svg width="27" height="46" fill="none" xmlns="http://www.w3.org/2000/svg"><path d="M26.25 30.901c0-8.076-6.615-8.997-11.93-9.735-5.792-.805-9.07-1.505-9.07-6.492C5.25 10.488 9.637 9 13.395 9a11.819 11.819 0 019.744 4.599l2.723-2.198A15.138 15.138 0 0015.75 5.668V.25h-3.5v5.288c-6.326.385-10.5 3.955-10.5 9.136 0 8.277 6.703 9.21 12.087 9.957 5.693.793 8.913 1.474 8.913 6.27C22.75 36.207 17.267 37 14 37c-6.002 0-8.536-1.687-10.888-4.599L.389 34.599a14.766 14.766 0 0011.861 5.84v5.311h3.5v-5.329c6.52-.532 10.5-4.072 10.5-9.52z" fill="#23B123"/></svg>