<svg width="176" height="35" fill="none" xmlns="http://www.w3.org/2000/svg"><path d="M61.19 25.555v4.027H44.41v-4.027h6.028V9.445H44.41V5.418h16.78v4.027h-6.027v16.11h6.028zM32.693 5.418h-4.63l-3.327 19.13h-.048l-3.857-17.74c-.241-1.198-.627-1.486-1.784-1.486H16.49c-1.11 0-1.543.288-1.784 1.486l-3.858 17.74h-.096L7.474 5.418H2.507l4.774 22.966c.193 1.006.579 1.246 1.688 1.246h3.279c1.109 0 1.495-.24 1.687-1.294l3.617-16.637h.096l3.617 16.637c.24 1.054.578 1.294 1.687 1.294h3.231c1.157 0 1.495-.24 1.688-1.246l4.822-22.966zM35.2 35H0V0h35.2v35zm58.056-11.603c.018 2.069.162 4.134.434 6.185h4.822c-.145-1.294-.29-3.452-.386-6.52-.096-3.069-1.254-4.124-3.761-4.603v-.096c2.797-.431 4.002-1.774 4.002-6.041 0-3.548-.579-4.843-1.543-5.801-.964-.96-1.977-1.055-3.857-1.055H78.163v24.116h5.015v-9.397h6.944c1.446 0 2.025.096 2.41.48.386.383.676.815.724 2.732zm-10.078-7.144V9.541h7.956c1.11 0 1.447.096 1.64.288.193.191.675.863.675 2.972 0 2.11-.338 2.781-.724 3.117-.385.335-.53.335-1.639.335h-7.908zM105.6 35H70.4V0h35.2v35zm42.963-29.582v24.164h11.959c3.423 0 5.304-.48 6.799-1.774 1.494-1.294 2.555-4.315 2.555-10.26 0-5.945-.82-8.774-2.555-10.26-1.736-1.487-3.328-1.774-6.799-1.774h-11.959v-.096zM164.91 17.5c0 5.178-.434 6.52-1.351 7.24-.916.719-1.591.719-3.375.719h-6.606V9.54h6.606c1.832 0 2.604.096 3.375.72.772.623 1.351 2.06 1.351 7.287V17.5zM176 35h-35.2V0H176v35zM112.061 9.445V5.418h20.686s2.648 6.287 0 7.767c-1.48.826-4.34 0-4.34 0v-3.74h-8.39V15.2h6.654v3.883h-6.654v6.473h8.583v-4.22h4.388v8.247h-20.927v-4.027h3.278V9.445h-3.278z" fill="#fff" fill-opacity=".5"/></svg>